<?xml version="1.0" encoding="iso-8859-1"?>
<!-- Uploaded to: SVG Repo, www.svgrepo.com, Generator: SVG Repo Mixer Tools -->
<svg height="800px" width="800px" version="1.1" id="Layer_1" xmlns="http://www.w3.org/2000/svg" xmlns:xlink="http://www.w3.org/1999/xlink" 
	 viewBox="0 0 512 512" xml:space="preserve">
<path style="fill:#547475;" d="M173.002,391.384h213.326h61.282c1.078,0,2.12-0.137,3.126-0.373
	c29.736-5.145,53.18-63.625,53.18-135.011c0-71.388-23.444-129.865-53.179-135.011c-1.007-0.236-2.048-0.373-3.126-0.373h-61.283
	H125.672H64.387c-1.078,0-2.12,0.137-3.124,0.373c-29.735,5.146-53.179,63.624-53.179,135.011
	c0,71.386,23.444,129.865,53.177,135.011c1.007,0.236,2.048,0.373,3.126,0.373h61.284h21.821"/>
<path style="fill:#53CAF9;" d="M364.322,211.529v134.899c0,7.143-5.789,12.935-12.935,12.935H160.611
	c-7.143,0-12.935-5.792-12.935-12.935V165.574c0-7.143,5.792-12.935,12.935-12.935h190.777c7.145,0,12.935,5.792,12.935,12.935
	v20.444"/>
<g style="opacity:0.2;">
	<path style="fill:#231F20;" d="M173.187,346.428V165.574c0-7.143,5.79-12.935,12.935-12.935h-25.512
		c-7.143,0-12.935,5.792-12.935,12.935v180.855c0,7.143,5.792,12.935,12.935,12.935h25.512
		C178.978,359.363,173.187,353.572,173.187,346.428z"/>
</g>
<g>
	<path style="fill:#73C470;" d="M211.362,214.394c0,1.909-1.548,3.457-3.457,3.457H188.68c-1.909,0-3.457-1.548-3.457-3.457v-19.225
		c0-1.909,1.548-3.457,3.457-3.457h19.225c1.909,0,3.457,1.548,3.457,3.457V214.394z"/>
	<path style="fill:#73C470;" d="M211.362,266.049c0,1.909-1.548,3.457-3.457,3.457H188.68c-1.909,0-3.457-1.548-3.457-3.457v-19.225
		c0-1.909,1.548-3.457,3.457-3.457h19.225c1.909,0,3.457,1.548,3.457,3.457V266.049z"/>
	<circle style="fill:#73C470;" cx="400.794" cy="256.432" r="13.981"/>
</g>
<circle style="fill:#F74848;" cx="463.311" cy="256.432" r="13.981"/>
<circle style="fill:#EFBA00;" cx="432.053" cy="287.691" r="13.982"/>
<circle style="fill:#53CAF9;" cx="432.053" cy="225.173" r="13.982"/>
<polygon style="fill:#F74848;" points="116.415,244.336 94.771,244.336 94.771,222.691 70.571,222.691 70.571,244.336 
	48.927,244.336 48.927,268.535 70.571,268.535 70.571,290.18 94.771,290.18 94.771,268.535 116.415,268.535 "/>
<g>
	<path style="fill:#8AACAD;" d="M450.737,120.99c-1.007-0.236-2.048-0.373-3.126-0.373h-48.163v24.082
		c0,7.143,5.792,12.935,12.935,12.935h73.551C476.608,136.847,464.33,123.342,450.737,120.99z"/>
	<path style="fill:#8AACAD;" d="M64.387,120.617c-1.078,0-2.12,0.137-3.124,0.373c-13.595,2.352-25.874,15.857-35.198,36.644h73.551
		c7.145,0,12.935-5.792,12.935-12.935v-24.082H64.387z"/>
	<path style="fill:#8AACAD;" d="M450.737,391.011c-1.007,0.236-2.048,0.373-3.126,0.373h-48.163v-24.082
		c0-7.143,5.792-12.935,12.935-12.935h73.551C476.608,375.154,464.33,388.659,450.737,391.011z"/>
	<path style="fill:#8AACAD;" d="M64.387,391.384c-1.078,0-2.12-0.137-3.124-0.373c-13.595-2.352-25.874-15.857-35.198-36.644h73.551
		c7.145,0,12.935,5.792,12.935,12.935v24.082H64.387z"/>
</g>
<g style="opacity:0.2;">
	<path style="fill:#231F20;" d="M33.996,256.001c0-71.388,23.444-129.865,53.179-135.011c1.007-0.236,2.048-0.373,3.126-0.373
		H64.387c-1.078,0-2.12,0.137-3.124,0.373c-29.735,5.146-53.179,63.624-53.179,135.011c0,71.386,23.444,129.865,53.177,135.011
		c1.007,0.236,2.048,0.373,3.126,0.373h25.914c-1.078,0-2.12-0.137-3.126-0.373C57.44,385.866,33.996,327.386,33.996,256.001z"/>
</g>
<path style="fill:#73C470;" d="M211.362,317.701c0,1.91-1.548,3.457-3.457,3.457H188.68c-1.909,0-3.457-1.548-3.457-3.457v-19.225
	c0-1.91,1.548-3.457,3.457-3.457h19.225c1.909,0,3.457,1.547,3.457,3.457V317.701z"/>
<g>
	<path style="fill:#231F20;" d="M512,256.001c0-35.405-5.684-69.257-16.007-95.323c-0.858-2.168-1.748-4.262-2.661-6.296
		c-0.009-0.019-0.013-0.039-0.022-0.058c-0.064-0.142-0.129-0.279-0.193-0.421c-0.193-0.426-0.387-0.85-0.583-1.27
		c-0.212-0.458-0.427-0.911-0.641-1.361c-0.109-0.226-0.217-0.455-0.326-0.679c-10.174-21.018-23.051-33.791-37.484-37.165
		c-0.053-0.012-0.105-0.027-0.157-0.039c-0.478-0.109-0.957-0.207-1.438-0.296c-0.049-0.009-0.097-0.022-0.147-0.03
		c-1.58-0.351-3.17-0.53-4.731-0.53h-48.163H112.552H64.387c-0.39,0-0.783,0.011-1.176,0.033c-1.179,0.067-2.369,0.233-3.554,0.497
		c-0.024,0.004-0.047,0.011-0.071,0.015c-0.508,0.093-1.014,0.197-1.519,0.313c-0.041,0.01-0.081,0.02-0.122,0.03
		c-14.447,3.363-27.333,16.139-37.513,37.171c-0.111,0.229-0.221,0.461-0.332,0.692c-0.21,0.441-0.419,0.883-0.627,1.33
		c-0.205,0.439-0.407,0.882-0.609,1.328c-0.058,0.128-0.117,0.253-0.176,0.383c-0.008,0.017-0.012,0.034-0.019,0.052
		c-0.914,2.036-1.804,4.132-2.663,6.3C5.684,186.744,0,220.596,0,256.001c0,35.403,5.684,69.256,16.007,95.323
		c0.859,2.17,1.749,4.264,2.663,6.3c0.008,0.017,0.012,0.036,0.019,0.053c0.058,0.132,0.119,0.258,0.178,0.388
		c0.2,0.443,0.402,0.884,0.606,1.319c0.208,0.448,0.417,0.89,0.628,1.331c0.111,0.232,0.222,0.466,0.334,0.695
		c10.171,21.015,23.045,33.786,37.478,37.161c0.054,0.013,0.107,0.028,0.16,0.04c0.479,0.11,0.959,0.208,1.441,0.296
		c0.047,0.009,0.095,0.021,0.143,0.029c0.705,0.157,1.413,0.274,2.118,0.361c0.875,0.109,1.747,0.169,2.612,0.169h48.165h34.941
		c4.466,0,8.084-3.618,8.084-8.084s-3.618-8.084-8.084-8.084h-26.857v-15.998c0-11.59-9.429-21.019-21.019-21.019H31.409
		c-0.123-0.305-0.248-0.606-0.37-0.914c-9.59-24.215-14.871-55.953-14.871-89.367c0-33.415,5.281-65.153,14.871-89.369
		c0.122-0.308,0.247-0.608,0.37-0.913h68.208c11.59,0,21.019-9.429,21.019-21.019v-15.998h270.728v15.998
		c0,11.59,9.429,21.019,21.019,21.019h68.208c0.123,0.305,0.248,0.605,0.37,0.913c9.59,24.216,14.871,55.955,14.871,89.369
		c0,33.414-5.281,65.152-14.871,89.368c-0.122,0.308-0.247,0.609-0.37,0.914h-68.208c-11.59,0-21.019,9.429-21.019,21.019V383.3
		H173.002c-4.466,0-8.084,3.618-8.084,8.084c0,4.466,3.618,8.084,8.084,8.084h226.446h48.163c1.56,0,3.151-0.179,4.731-0.53
		c0.049-0.009,0.097-0.022,0.147-0.03c0.481-0.088,0.96-0.186,1.438-0.296c0.053-0.012,0.105-0.027,0.157-0.039
		c14.434-3.374,27.311-16.147,37.485-37.167c0.108-0.223,0.216-0.448,0.323-0.673c0.217-0.454,0.432-0.909,0.646-1.37
		c0.194-0.417,0.387-0.838,0.579-1.261c0.065-0.143,0.13-0.282,0.195-0.426c0.009-0.019,0.013-0.039,0.022-0.058
		c0.913-2.034,1.803-4.127,2.661-6.295C506.316,325.256,512,291.404,512,256.001z M99.617,362.451c2.674,0,4.851,2.176,4.851,4.851
		V383.3h-40.08c-0.208,0-0.421-0.015-0.64-0.043c-0.205-0.026-0.416-0.064-0.635-0.115c-0.156-0.036-0.313-0.068-0.471-0.096
		c-0.457-0.079-0.915-0.183-1.373-0.301c-0.086-0.023-0.174-0.046-0.26-0.07c-7.425-2.033-14.987-9.147-21.658-20.222h60.267
		V362.451z M104.467,144.699c0,2.675-2.176,4.851-4.851,4.851H39.35c6.669-11.072,14.229-18.185,21.652-20.22
		c0.091-0.025,0.181-0.05,0.273-0.073c0.457-0.117,0.913-0.221,1.368-0.3c0.157-0.027,0.315-0.06,0.471-0.096
		c0.454-0.108,0.872-0.16,1.276-0.16h40.08v15.998H104.467z M412.383,149.55c-2.674,0-4.851-2.175-4.851-4.851v-15.998h40.078
		c0.404,0,0.825,0.053,1.282,0.16c0.155,0.037,0.309,0.068,0.467,0.096c0.456,0.079,0.913,0.182,1.37,0.301
		c0.089,0.023,0.178,0.047,0.267,0.072c7.421,2.034,14.983,9.147,21.654,20.221h-60.267V149.55z M407.533,383.3v-15.998
		c0-2.674,2.176-4.851,4.851-4.851h60.266c-6.671,11.074-14.233,18.187-21.654,20.221c-0.089,0.024-0.178,0.05-0.267,0.072
		c-0.457,0.118-0.914,0.222-1.37,0.301c-0.157,0.027-0.312,0.059-0.467,0.096c-0.458,0.107-0.877,0.158-1.282,0.158L407.533,383.3
		L407.533,383.3z"/>
	<path style="fill:#231F20;" d="M381.686,245.402c-2.947,5.104-3.731,11.051-2.205,16.744c1.526,5.693,5.178,10.452,10.282,13.399
		c3.352,1.936,7.164,2.959,11.02,2.959c0.001,0,0.001,0,0.002,0c7.864,0,15.191-4.23,19.12-11.035
		c6.083-10.536,2.459-24.058-8.075-30.141c-3.352-1.937-7.164-2.961-11.023-2.961C392.942,234.366,385.615,238.596,381.686,245.402z
		 M405.902,259.384c-1.052,1.821-3.012,2.951-5.118,2.951c0,0,0,0-0.001,0c-1.038,0-2.026-0.267-2.937-0.792
		c-1.366-0.788-2.341-2.06-2.749-3.581s-0.198-3.111,0.59-4.474c1.052-1.821,3.014-2.952,5.12-2.952
		c1.037,0,2.023,0.266,2.935,0.793C406.559,252.954,407.527,256.568,405.902,259.384z"/>
	<path style="fill:#231F20;" d="M463.306,278.504c7.866,0,15.194-4.23,19.12-11.035c6.084-10.536,2.461-24.059-8.073-30.141
		c-3.352-1.937-7.164-2.961-11.023-2.961c-7.863,0-15.191,4.229-19.124,11.038c-6.081,10.536-2.457,24.058,8.078,30.141
		c3.352,1.936,7.164,2.959,11.02,2.959C463.305,278.504,463.305,278.504,463.306,278.504z M458.209,253.488
		c1.053-1.822,3.016-2.953,5.122-2.953c1.037,0,2.024,0.267,2.936,0.793c2.815,1.625,3.783,5.24,2.157,8.058
		c-1.05,1.819-3.011,2.949-5.117,2.949c-1.039,0-2.028-0.267-2.937-0.792C457.552,259.917,456.584,256.302,458.209,253.488z"/>
	<path style="fill:#231F20;" d="M443.09,268.587c-3.352-1.936-7.164-2.959-11.02-2.959c-7.865,0-15.194,4.229-19.124,11.034
		c-2.947,5.104-3.731,11.051-2.205,16.744c1.526,5.693,5.178,10.452,10.282,13.399c3.352,1.936,7.164,2.959,11.02,2.959
		c0.001,0,0.001,0,0.002,0c7.863,0,15.191-4.229,19.122-11.035C457.249,288.192,453.627,274.671,443.09,268.587z M437.166,290.644
		c-1.053,1.821-3.015,2.952-5.121,2.952c0,0,0,0-0.001,0c-1.038,0-2.026-0.267-2.937-0.792c-1.366-0.789-2.341-2.06-2.749-3.581
		s-0.198-3.111,0.59-4.473c1.052-1.821,3.014-2.952,5.122-2.952c1.038,0,2.025,0.267,2.935,0.792
		C437.823,284.215,438.79,287.829,437.166,290.644z"/>
	<path style="fill:#231F20;" d="M443.09,206.065c-3.353-1.936-7.164-2.959-11.023-2.959c-7.865,0-15.192,4.227-19.122,11.033
		c-6.083,10.536-2.46,24.059,8.079,30.145c3.351,1.934,7.162,2.956,11.017,2.957c0.001,0,0.001,0,0.002,0
		c7.863,0,15.191-4.227,19.123-11.034c2.947-5.105,3.73-11.052,2.204-16.745C451.845,213.768,448.194,209.01,443.09,206.065z
		 M437.166,228.121c-1.052,1.822-3.015,2.952-5.122,2.952c-0.001,0-0.001,0-0.001,0c-1.038,0-2.026-0.267-2.935-0.79
		c-2.817-1.628-3.786-5.243-2.16-8.058c1.051-1.819,3.013-2.95,5.12-2.95c1.038,0,2.026,0.266,2.939,0.793
		c1.364,0.786,2.339,2.058,2.746,3.579C438.162,225.168,437.953,226.758,437.166,228.121z"/>
	<path style="fill:#231F20;" d="M70.571,298.264h24.2c4.466,0,8.084-3.618,8.084-8.084v-13.56h13.56
		c4.466,0,8.084-3.618,8.084-8.084v-24.2c0-4.466-3.618-8.084-8.084-8.084h-13.56v-13.56c0-4.466-3.618-8.084-8.084-8.084h-24.2
		c-4.466,0-8.084,3.618-8.084,8.084v13.56h-13.56c-4.466,0-8.084,3.618-8.084,8.084v24.2c0,4.466,3.618,8.084,8.084,8.084h13.56
		v13.56C62.487,294.645,66.105,298.264,70.571,298.264z M57.011,260.451v-8.031h13.56c4.466,0,8.084-3.618,8.084-8.084v-13.56h8.031
		v13.56c0,4.466,3.618,8.084,8.084,8.084h13.56v8.031h-13.56c-4.466,0-8.084,3.618-8.084,8.084v13.56h-8.031v-13.56
		c0-4.466-3.618-8.084-8.084-8.084H57.011L57.011,260.451z"/>
	<path style="fill:#231F20;" d="M364.322,194.101c4.466,0,8.084-3.62,8.084-8.084v-20.444c0-11.59-9.429-21.019-21.019-21.019
		H160.611c-11.59,0-21.019,9.429-21.019,21.019v180.855c0,11.59,9.429,21.019,21.019,21.019h190.777
		c11.59,0,21.019-9.429,21.019-21.019V211.529c0-4.466-3.618-8.084-8.084-8.084s-8.084,3.618-8.084,8.084v134.899
		c0,2.674-2.176,4.851-4.851,4.851H160.611c-2.674,0-4.851-2.176-4.851-4.851V165.573c0-2.674,2.176-4.851,4.851-4.851h190.777
		c2.674,0,4.851,2.176,4.851,4.851v20.444C356.238,190.483,359.857,194.101,364.322,194.101z"/>
	<path style="fill:#231F20;" d="M323.463,196.697h-84.884c-4.466,0-8.084,3.618-8.084,8.084c0,4.466,3.618,8.084,8.084,8.084h84.884
		c4.466,0,8.084-3.618,8.084-8.084C331.547,200.316,327.928,196.697,323.463,196.697z"/>
	<path style="fill:#231F20;" d="M323.463,248.352h-84.884c-4.466,0-8.084,3.62-8.084,8.084c0,4.466,3.618,8.084,8.084,8.084h84.884
		c4.466,0,8.084-3.618,8.084-8.084C331.547,251.971,327.928,248.352,323.463,248.352z"/>
	<path style="fill:#231F20;" d="M323.463,300.005h-84.884c-4.466,0-8.084,3.618-8.084,8.084c0,4.465,3.618,8.084,8.084,8.084h84.884
		c4.466,0,8.084-3.62,8.084-8.084S327.928,300.005,323.463,300.005z"/>
	<path style="fill:#231F20;" d="M219.446,195.17c0-6.364-5.177-11.541-11.541-11.541H188.68c-6.364,0-11.541,5.177-11.541,11.541
		v19.224c0,6.364,5.177,11.541,11.541,11.541h19.225c6.364,0,11.541-5.177,11.541-11.541V195.17z M203.278,209.766h-9.971v-9.971
		h9.971V209.766z"/>
	<path style="fill:#231F20;" d="M219.446,246.823c0-6.364-5.177-11.541-11.541-11.541H188.68c-6.364,0-11.541,5.177-11.541,11.541
		v19.225c0,6.364,5.177,11.541,11.541,11.541h19.225c6.364,0,11.541-5.177,11.541-11.541V246.823z M203.278,261.421h-9.971v-9.971
		h9.971V261.421z"/>
	<path style="fill:#231F20;" d="M207.905,286.935H188.68c-6.364,0-11.541,5.177-11.541,11.541v19.225
		c0,6.364,5.177,11.541,11.541,11.541h19.225c6.364,0,11.541-5.177,11.541-11.541v-19.225
		C219.446,292.112,214.269,286.935,207.905,286.935z M203.278,313.074h-9.971v-9.971h9.971V313.074z"/>
</g>
</svg>