<?xml version="1.0" encoding="iso-8859-1"?>
<!-- Uploaded to: SVG Repo, www.svgrepo.com, Generator: SVG Repo Mixer Tools -->
<svg height="800px" width="800px" version="1.1" id="Layer_1" xmlns="http://www.w3.org/2000/svg" xmlns:xlink="http://www.w3.org/1999/xlink" 
	 viewBox="0 0 512 512" xml:space="preserve">
<path style="fill:#D1D5D8;" d="M154.054,424.052v18.51c0,31.978-25.919,57.897-57.886,57.897h-1.546
	c-31.966,0-57.886-25.919-57.886-57.897v-18.51H154.054z"/>
<path style="fill:#5A6B96;" d="M154.054,148.484v275.568H36.736V250.419c0-56.293,45.63-101.934,101.934-101.934L154.054,148.484
	L154.054,148.484z"/>
<g>
	<path style="fill:#D1D5D8;" d="M200.219,148.484h111.556v294.082c0,31.973-25.919,57.894-57.894,57.894h4.232
		c-31.973,0-57.894-25.919-57.894-57.894L200.219,148.484L200.219,148.484z"/>
	<path style="fill:#D1D5D8;" d="M475.264,424.052v18.51c0,31.978-25.919,57.897-57.897,57.897h-1.535
		c-31.978,0-57.897-25.919-57.897-57.897v-18.51H475.264z"/>
</g>
<path style="fill:#5A6B96;" d="M475.264,250.419v173.634H357.935V148.484h15.383C429.622,148.484,475.264,194.126,475.264,250.419z"
	/>
<path style="fill:#EFEFEF;" d="M374.188,438.527H137.805c-15.987,0-28.946-12.96-28.946-28.946V158.678
	c0-81.261,65.876-147.137,147.137-147.137l0,0c81.261,0,147.137,65.876,147.137,147.137v250.903
	C403.134,425.567,390.174,438.527,374.188,438.527z"/>
<circle style="fill:#FF7D46;" cx="255.997" cy="87.325" r="25.965"/>
<g>
	<path style="fill:#231F20;" d="M414.036,144.52C406.85,63.634,338.72,0,255.997,0C173.274,0,105.144,63.634,97.958,144.52
		c-42.513,16.4-72.762,57.673-72.762,105.899v192.144C25.196,480.851,56.34,512,94.622,512h1.546
		c35.746,0,65.26-27.162,69.014-61.933h23.914c3.502,32.435,29.421,58.253,61.91,61.572c0.919,0.235,1.882,0.361,2.875,0.361h4.232
		c0.992,0,1.956-0.125,2.875-0.361c32.489-3.319,58.407-29.137,61.91-61.572h23.91C350.561,484.837,380.08,512,415.832,512h1.535
		c38.288,0,69.437-31.149,69.437-69.437V250.419C486.804,202.193,456.552,160.921,414.036,144.52z M463.723,250.419v162.093h-49.167
		c0.07-0.969,0.118-1.945,0.118-2.931v-239.49C443.773,185.124,463.723,215.473,463.723,250.419z M137.805,426.987
		c-9.597,0-17.406-7.809-17.406-17.406V160.024h271.194v249.557c0,9.598-7.809,17.406-17.407,17.406H137.805z M255.997,23.08
		c67.372,0,123.415,49.391,133.848,113.864H122.15C132.581,72.471,188.625,23.08,255.997,23.08z M48.277,250.419
		c0-34.945,19.948-65.293,49.042-80.327v239.489c0,0.987,0.048,1.962,0.118,2.931h-49.16V250.419z M96.168,488.92h-1.546
		c-25.556,0-46.345-20.795-46.345-46.357v-6.97h58.535c7.433,8.841,18.566,14.475,30.993,14.475h4.092
		C138.301,472.071,119.169,488.92,96.168,488.92z M255.997,488.871c-22.053-0.997-40.133-17.48-43.62-38.804h87.239
		C296.129,471.391,278.05,487.874,255.997,488.871z M463.723,442.563c0,25.562-20.797,46.357-46.357,46.357h-1.535
		c-23.005,0-42.141-16.849-45.741-38.852h4.096c12.429,0,23.562-5.634,30.995-14.475h58.542L463.723,442.563L463.723,442.563z"/>
	<path style="fill:#231F20;" d="M255.997,124.827c20.681,0,37.506-16.826,37.506-37.506s-16.824-37.506-37.506-37.506
		s-37.506,16.826-37.506,37.506S235.315,124.827,255.997,124.827z M255.997,72.896c7.955,0,14.425,6.471,14.425,14.425
		s-6.471,14.425-14.425,14.425s-14.425-6.471-14.425-14.425S248.043,72.896,255.997,72.896z"/>
	<path style="fill:#231F20;" d="M303.696,183.105h-95.399c-6.372,0-11.54,5.167-11.54,11.54s5.168,11.54,11.54,11.54h95.399
		c6.372,0,11.54-5.167,11.54-11.54S310.069,183.105,303.696,183.105z"/>
	<path style="fill:#231F20;" d="M303.696,229.265h-95.399c-6.372,0-11.54,5.167-11.54,11.54s5.168,11.54,11.54,11.54h95.399
		c6.372,0,11.54-5.167,11.54-11.54S310.069,229.265,303.696,229.265z"/>
	<path style="fill:#231F20;" d="M303.696,275.426h-95.399c-6.372,0-11.54,5.167-11.54,11.54c0,6.374,5.168,11.54,11.54,11.54h95.399
		c6.372,0,11.54-5.167,11.54-11.54C315.236,280.593,310.069,275.426,303.696,275.426z"/>
	<path style="fill:#231F20;" d="M255.997,356.784c-6.372,0-11.54,5.167-11.54,11.54v23.657c0,6.374,5.168,11.54,11.54,11.54
		c6.372,0,11.54-5.167,11.54-11.54v-23.657C267.537,361.951,262.37,356.784,255.997,356.784z"/>
	<path style="fill:#231F20;" d="M255.997,316.585c-6.372,0-11.54,5.167-11.54,11.54v0.384c0,6.374,5.168,11.54,11.54,11.54
		c6.372,0,11.54-5.167,11.54-11.54v-0.384C267.537,321.752,262.37,316.585,255.997,316.585z"/>
</g>
</svg>